<svg width="59" height="33" viewBox="0 0 59 33" fill="none" xmlns="http://www.w3.org/2000/svg">
<path d="M7.524 32.844L1.476 32.304L2.808 7.572C2.184 7.716 1.608 7.884 1.08 8.076L0 1.956C1.272 1.692 2.844 1.416 4.716 1.128C6.588 0.839999 8.52 0.696 10.512 0.696C12.048 0.696 13.608 0.864 15.192 1.2C16.776 1.512 18.288 2.04 19.728 2.784C21.192 3.504 22.488 4.476 23.616 5.7C24.768 6.924 25.668 8.424 26.316 10.2C26.988 11.976 27.324 14.076 27.324 16.5C27.324 19.908 26.772 22.824 25.668 25.248C24.588 27.648 23.004 29.484 20.916 30.756C18.852 32.028 16.356 32.664 13.428 32.664C11.484 32.664 9.564 32.304 7.668 31.584C7.62 32.064 7.572 32.484 7.524 32.844ZM10.26 6.744C9.924 6.744 9.576 6.744 9.216 6.744C8.976 11.208 8.76 15.012 8.568 18.156C8.376 21.276 8.208 23.88 8.064 25.968C8.784 26.208 9.576 26.424 10.44 26.616C11.328 26.784 12.252 26.868 13.212 26.868C15.156 26.868 16.716 26.376 17.892 25.392C19.092 24.408 19.956 23.112 20.484 21.504C21.012 19.872 21.276 18.108 21.276 16.212C21.276 14.7 21.048 13.416 20.592 12.36C20.136 11.304 19.536 10.428 18.792 9.732C18.072 9.036 17.28 8.496 16.416 8.112C15.552 7.704 14.7 7.404 13.86 7.212C13.044 7.02 12.312 6.9 11.664 6.852C11.016 6.78 10.548 6.744 10.26 6.744ZM33.1875 32.484C33.1155 30.852 33.0795 29.052 33.0795 27.084C33.0795 25.188 33.1155 23.172 33.1875 21.036C33.2595 18.9 33.3675 16.74 33.5115 14.556C33.6555 12.348 33.8475 10.2 34.0875 8.112C33.7035 8.208 33.3315 8.304 32.9715 8.4C32.6355 8.472 32.3235 8.556 32.0355 8.652L30.1995 2.928C36.0075 1.56 40.8435 0.875999 44.7075 0.875999C52.5555 0.875999 56.4795 3.864 56.4795 9.84C56.4795 12.648 55.5435 14.88 53.6715 16.536C51.7995 18.168 49.0515 19.2 45.4275 19.632C47.6115 21.48 49.8075 23.004 52.0155 24.204C54.2475 25.38 56.5035 26.376 58.7835 27.192L54.8235 32.484C53.5515 32.028 52.2195 31.392 50.8275 30.576C49.4355 29.76 48.0555 28.86 46.6875 27.876C45.3195 26.892 44.0115 25.896 42.7635 24.888C41.5395 23.88 40.4475 22.944 39.4875 22.08C39.4635 23.736 39.4395 25.416 39.4155 27.12C39.4155 28.8 39.4155 30.54 39.4155 32.34L39.1995 32.556C38.2875 32.556 37.3035 32.556 36.2475 32.556C35.2155 32.58 34.2795 32.628 33.4395 32.7L33.1875 32.484ZM44.3835 6.6C43.7115 6.6 43.0155 6.636 42.2955 6.708C41.5755 6.756 40.8555 6.828 40.1355 6.924C40.0395 8.268 39.9555 9.6 39.8835 10.92C39.8115 12.216 39.7515 13.512 39.7035 14.808C40.7595 14.784 41.8995 14.724 43.1235 14.628C44.3715 14.508 45.5475 14.292 46.6515 13.98C47.7555 13.644 48.6555 13.164 49.3515 12.54C50.0715 11.916 50.4315 11.088 50.4315 10.056C50.4315 8.856 49.9395 7.98 48.9555 7.428C47.9715 6.876 46.4475 6.6 44.3835 6.6Z" fill="#fff"/>
</svg>
