<svg width="278" height="41" viewBox="0 0 278 41" fill="none" xmlns="http://www.w3.org/2000/svg">
<path d="M7.524 32.844L1.476 32.304L2.808 7.572C2.184 7.716 1.608 7.884 1.08 8.076L0 1.956C1.272 1.692 2.844 1.416 4.716 1.128C6.588 0.839999 8.52 0.696 10.512 0.696C12.048 0.696 13.608 0.864 15.192 1.2C16.776 1.512 18.288 2.04 19.728 2.784C21.192 3.504 22.488 4.476 23.616 5.7C24.768 6.924 25.668 8.424 26.316 10.2C26.988 11.976 27.324 14.076 27.324 16.5C27.324 19.908 26.772 22.824 25.668 25.248C24.588 27.648 23.004 29.484 20.916 30.756C18.852 32.028 16.356 32.664 13.428 32.664C11.484 32.664 9.564 32.304 7.668 31.584C7.62 32.064 7.572 32.484 7.524 32.844ZM10.26 6.744C9.924 6.744 9.576 6.744 9.216 6.744C8.976 11.208 8.76 15.012 8.568 18.156C8.376 21.276 8.208 23.88 8.064 25.968C8.784 26.208 9.576 26.424 10.44 26.616C11.328 26.784 12.252 26.868 13.212 26.868C15.156 26.868 16.716 26.376 17.892 25.392C19.092 24.408 19.956 23.112 20.484 21.504C21.012 19.872 21.276 18.108 21.276 16.212C21.276 14.7 21.048 13.416 20.592 12.36C20.136 11.304 19.536 10.428 18.792 9.732C18.072 9.036 17.28 8.496 16.416 8.112C15.552 7.704 14.7 7.404 13.86 7.212C13.044 7.02 12.312 6.9 11.664 6.852C11.016 6.78 10.548 6.744 10.26 6.744ZM30.2715 32.808C30.3675 30.816 30.4395 28.824 30.4875 26.832C30.5355 24.84 30.5595 22.872 30.5595 20.928C30.5355 19.152 30.4995 17.4 30.4515 15.672C30.4275 13.92 30.3675 12.228 30.2715 10.596L36.3195 10.416C36.3435 11.304 36.3795 12.216 36.4275 13.152C37.1955 12.192 38.0835 11.424 39.0915 10.848C40.1235 10.248 41.2995 9.948 42.6195 9.948C43.1235 9.948 43.7715 10.02 44.5635 10.164C45.3555 10.308 46.1595 10.584 46.9755 10.992L46.2915 17.076C45.6915 16.716 45.0435 16.464 44.3475 16.32C43.6755 16.152 43.1115 16.068 42.6555 16.068C41.1195 16.068 39.8115 16.764 38.7315 18.156C37.6755 19.524 36.9555 21.432 36.5715 23.88C36.5715 25.56 36.5475 27.168 36.4995 28.704C36.4755 30.216 36.4155 31.584 36.3195 32.808H30.2715ZM59.3227 32.88C57.0187 32.88 54.9907 32.424 53.2387 31.512C51.5107 30.624 50.1547 29.376 49.1707 27.768C48.2107 26.16 47.7307 24.3 47.7307 22.188C47.7307 20.916 47.9467 19.584 48.3787 18.192C48.8107 16.776 49.5067 15.456 50.4667 14.232C51.4267 13.008 52.6867 12.012 54.2467 11.244C55.8307 10.476 57.7507 10.092 60.0067 10.092C61.6387 10.092 63.0067 10.272 64.1107 10.632C65.2387 10.992 66.1507 11.46 66.8467 12.036C67.5667 12.612 68.1067 13.224 68.4667 13.872C68.8507 14.52 69.1027 15.144 69.2227 15.744C69.3667 16.32 69.4387 16.8 69.4387 17.184C69.4387 19.512 68.4547 21.312 66.4867 22.584C64.5427 23.832 61.7827 24.456 58.2067 24.456C57.3907 24.456 56.6107 24.42 55.8667 24.348C55.1467 24.276 54.4747 24.192 53.8507 24.096C54.3067 25.296 55.0627 26.184 56.1187 26.76C57.1747 27.312 58.2667 27.588 59.3947 27.588C61.0267 27.588 62.4667 27.3 63.7147 26.724C64.9627 26.124 66.1387 25.212 67.2427 23.988L70.4467 28.596C69.6787 29.22 68.8147 29.868 67.8547 30.54C66.9187 31.212 65.7667 31.764 64.3987 32.196C63.0307 32.652 61.3387 32.88 59.3227 32.88ZM60.1147 15.492C58.6987 15.492 57.4507 15.852 56.3707 16.572C55.2907 17.292 54.4987 18.24 53.9947 19.416C54.5947 19.512 55.1827 19.596 55.7587 19.668C56.3587 19.716 56.9467 19.74 57.5227 19.74C58.0507 19.74 58.6507 19.692 59.3227 19.596C60.0187 19.5 60.6907 19.356 61.3387 19.164C62.0107 18.972 62.5627 18.732 62.9947 18.444C63.4267 18.132 63.6427 17.772 63.6427 17.364C63.6427 17.172 63.5467 16.932 63.3547 16.644C63.1627 16.356 62.8147 16.092 62.3107 15.852C61.8067 15.612 61.0747 15.492 60.1147 15.492ZM82.2718 32.844C80.4718 32.844 78.8398 32.376 77.3758 31.44C75.9118 30.528 74.7478 29.292 73.8838 27.732C73.0438 26.148 72.6238 24.384 72.6238 22.44C72.6238 20.616 72.9598 18.972 73.6318 17.508C74.3038 16.02 75.2158 14.748 76.3678 13.692C77.5438 12.636 78.8758 11.832 80.3638 11.28C81.8518 10.704 83.4118 10.416 85.0438 10.416C86.4118 10.416 87.7558 10.608 89.0758 10.992C89.1718 10.488 89.2558 9.984 89.3278 9.48L95.4838 10.524C95.3158 10.98 95.1478 11.664 94.9798 12.576C94.8118 13.488 94.6678 14.508 94.5478 15.636C94.4518 16.764 94.3678 17.892 94.2958 19.02C94.2238 20.148 94.1878 21.168 94.1878 22.08C94.1878 22.824 94.2358 23.556 94.3318 24.276C94.4518 24.972 94.6918 25.548 95.0518 26.004C95.4118 26.436 95.9638 26.652 96.7078 26.652H97.2118L96.3118 32.916C94.7278 32.916 93.4198 32.64 92.3878 32.088C91.3558 31.56 90.5278 30.84 89.9038 29.928C88.8718 31.08 87.6958 31.848 86.3758 32.232C85.0558 32.64 83.6878 32.844 82.2718 32.844ZM78.5278 23.16C78.6478 24.312 79.1158 25.236 79.9318 25.932C80.7718 26.604 81.8278 26.94 83.0998 26.94C84.3238 26.94 85.3438 26.616 86.1598 25.968C86.9758 25.296 87.6478 24.384 88.1758 23.232C88.1518 22.848 88.1398 22.452 88.1398 22.044C88.1398 21.204 88.1638 20.34 88.2118 19.452C88.2598 18.564 88.3198 17.688 88.3918 16.824C87.3838 16.44 86.3278 16.248 85.2238 16.248C83.9278 16.248 82.7638 16.512 81.7318 17.04C80.7238 17.544 79.9318 18.252 79.3558 19.164C78.7798 20.076 78.4918 21.132 78.4918 22.332C78.4918 22.476 78.4918 22.62 78.4918 22.764C78.4918 22.908 78.5038 23.04 78.5278 23.16ZM99.4624 32.808C99.4384 32.448 99.4144 31.848 99.3904 31.008C99.3664 30.192 99.3424 29.208 99.3184 28.056C99.2944 26.904 99.2824 25.668 99.2824 24.348C99.2824 23.004 99.2824 21.66 99.2824 20.316C99.2824 18.828 99.2824 17.412 99.2824 16.068C99.3064 14.724 99.3184 13.56 99.3184 12.576C99.3424 11.592 99.3544 10.884 99.3544 10.452L105.438 10.344C105.39 11.016 105.354 11.832 105.33 12.792C105.954 11.952 106.674 11.292 107.49 10.812C108.306 10.332 109.242 10.092 110.298 10.092C111.57 10.092 112.614 10.464 113.43 11.208C114.27 11.952 114.954 12.924 115.482 14.124C117.21 11.436 119.334 10.092 121.854 10.092C123.27 10.092 124.434 10.404 125.346 11.028C126.282 11.628 127.014 12.444 127.542 13.476C128.07 14.508 128.454 15.672 128.694 16.968C128.958 18.264 129.126 19.596 129.198 20.964C129.27 22.332 129.306 23.652 129.306 24.924C129.306 26.436 129.282 27.816 129.234 29.064C129.186 30.312 129.174 31.5 129.198 32.628H122.97C122.97 32.052 122.97 31.32 122.97 30.432C122.97 29.568 122.97 28.692 122.97 27.804C122.994 26.892 123.006 26.112 123.006 25.464C123.006 24.792 123.006 24.396 123.006 24.276C123.006 22.836 122.97 21.48 122.898 20.208C122.826 18.936 122.646 17.904 122.358 17.112C122.07 16.32 121.602 15.924 120.954 15.924C120.33 15.924 119.778 16.224 119.298 16.824C118.818 17.424 118.386 18.204 118.002 19.164C117.642 20.124 117.33 21.144 117.066 22.224C117.114 23.16 117.15 24.096 117.174 25.032C117.198 25.944 117.21 26.832 117.21 27.696C117.21 28.68 117.198 29.532 117.174 30.252C117.174 30.996 117.174 31.788 117.174 32.628H111.126C111.126 30.684 111.114 28.968 111.09 27.48C111.066 25.992 111.018 24.552 110.946 23.16C110.826 20.664 110.562 18.84 110.154 17.688C109.77 16.512 109.23 15.924 108.534 15.924C107.766 15.924 107.118 16.392 106.59 17.328C106.062 18.24 105.63 19.356 105.294 20.676C105.318 22.596 105.366 24.6 105.438 26.688C105.51 28.776 105.606 30.792 105.726 32.736L99.4624 32.808ZM143.438 32.484C143.366 30.852 143.33 29.052 143.33 27.084C143.33 25.188 143.366 23.172 143.438 21.036C143.51 18.9 143.618 16.74 143.762 14.556C143.906 12.348 144.098 10.2 144.338 8.112C143.954 8.208 143.582 8.304 143.222 8.4C142.886 8.472 142.574 8.556 142.286 8.652L140.45 2.928C146.258 1.56 151.094 0.875999 154.958 0.875999C162.806 0.875999 166.73 3.864 166.73 9.84C166.73 12.648 165.794 14.88 163.922 16.536C162.05 18.168 159.302 19.2 155.678 19.632C157.862 21.48 160.058 23.004 162.266 24.204C164.498 25.38 166.754 26.376 169.034 27.192L165.074 32.484C163.802 32.028 162.47 31.392 161.078 30.576C159.686 29.76 158.306 28.86 156.938 27.876C155.57 26.892 154.262 25.896 153.014 24.888C151.79 23.88 150.698 22.944 149.738 22.08C149.714 23.736 149.69 25.416 149.666 27.12C149.666 28.8 149.666 30.54 149.666 32.34L149.45 32.556C148.538 32.556 147.554 32.556 146.498 32.556C145.466 32.58 144.53 32.628 143.689 32.7L143.438 32.484ZM154.634 6.6C153.962 6.6 153.266 6.636 152.546 6.708C151.826 6.756 151.106 6.828 150.386 6.924C150.29 8.268 150.206 9.6 150.134 10.92C150.062 12.216 150.002 13.512 149.954 14.808C151.01 14.784 152.15 14.724 153.374 14.628C154.622 14.508 155.798 14.292 156.902 13.98C158.006 13.644 158.906 13.164 159.602 12.54C160.322 11.916 160.682 11.088 160.682 10.056C160.682 8.856 160.19 7.98 159.206 7.428C158.222 6.876 156.698 6.6 154.634 6.6ZM182.862 32.88C180.558 32.88 178.53 32.424 176.778 31.512C175.05 30.624 173.694 29.376 172.71 27.768C171.75 26.16 171.27 24.3 171.27 22.188C171.27 20.916 171.486 19.584 171.918 18.192C172.35 16.776 173.046 15.456 174.006 14.232C174.966 13.008 176.226 12.012 177.786 11.244C179.37 10.476 181.29 10.092 183.546 10.092C185.178 10.092 186.546 10.272 187.65 10.632C188.778 10.992 189.69 11.46 190.386 12.036C191.106 12.612 191.646 13.224 192.006 13.872C192.39 14.52 192.642 15.144 192.762 15.744C192.906 16.32 192.978 16.8 192.978 17.184C192.978 19.512 191.994 21.312 190.026 22.584C188.082 23.832 185.322 24.456 181.746 24.456C180.93 24.456 180.15 24.42 179.406 24.348C178.686 24.276 178.014 24.192 177.39 24.096C177.846 25.296 178.602 26.184 179.658 26.76C180.714 27.312 181.806 27.588 182.934 27.588C184.566 27.588 186.006 27.3 187.254 26.724C188.502 26.124 189.678 25.212 190.782 23.988L193.986 28.596C193.218 29.22 192.354 29.868 191.394 30.54C190.458 31.212 189.306 31.764 187.938 32.196C186.57 32.652 184.878 32.88 182.862 32.88ZM183.654 15.492C182.238 15.492 180.99 15.852 179.91 16.572C178.83 17.292 178.038 18.24 177.534 19.416C178.134 19.512 178.722 19.596 179.298 19.668C179.898 19.716 180.486 19.74 181.062 19.74C181.59 19.74 182.19 19.692 182.862 19.596C183.558 19.5 184.23 19.356 184.878 19.164C185.55 18.972 186.102 18.732 186.534 18.444C186.966 18.132 187.182 17.772 187.182 17.364C187.182 17.172 187.086 16.932 186.894 16.644C186.702 16.356 186.354 16.092 185.85 15.852C185.346 15.612 184.614 15.492 183.654 15.492ZM207.359 32.916C205.343 32.916 203.483 32.496 201.779 31.656C200.075 30.816 198.707 29.616 197.675 28.056C196.643 26.472 196.127 24.588 196.127 22.404C196.127 19.956 196.607 17.808 197.567 15.96C198.527 14.112 199.871 12.684 201.599 11.676C203.327 10.644 205.343 10.128 207.647 10.128C209.855 10.128 211.727 10.584 213.263 11.496C214.799 12.384 216.167 13.8 217.367 15.744L212.363 19.2C211.691 18.12 211.007 17.304 210.311 16.752C209.615 16.176 208.667 15.888 207.467 15.888C205.835 15.888 204.515 16.464 203.507 17.616C202.499 18.744 201.995 20.256 201.995 22.152C201.995 23.256 202.259 24.156 202.787 24.852C203.339 25.548 204.011 26.064 204.803 26.4C205.595 26.736 206.339 26.904 207.035 26.904C207.755 26.904 208.451 26.82 209.123 26.652C209.795 26.46 210.431 26.052 211.031 25.428C211.631 24.804 212.171 23.856 212.651 22.584L218.051 25.464C217.331 26.784 216.527 28.008 215.639 29.136C214.751 30.264 213.647 31.176 212.327 31.872C211.031 32.568 209.375 32.916 207.359 32.916ZM220.327 6.744C220.327 6.528 220.315 6.312 220.291 6.096C220.291 5.856 220.291 5.592 220.291 5.304C220.291 4.536 220.315 3.72 220.363 2.856C220.411 1.992 220.459 1.26 220.507 0.659998L226.915 0.767999C226.843 1.584 226.759 2.508 226.663 3.54C226.591 4.572 226.543 5.64 226.519 6.744H220.327ZM220.183 32.52C220.111 31.032 220.063 29.448 220.039 27.768C220.015 26.064 220.003 24.36 220.003 22.656C220.003 20.424 220.027 18.252 220.075 16.14C220.123 14.028 220.183 12.108 220.255 10.38L226.447 10.344C226.351 11.448 226.291 12.816 226.267 14.448C226.243 16.056 226.231 17.748 226.231 19.524C226.231 21.276 226.243 23.004 226.267 24.708C226.291 26.412 226.315 27.96 226.339 29.352C226.387 30.72 226.423 31.776 226.447 32.52H220.183ZM230.215 40.224C230.047 38.304 229.927 36.372 229.855 34.428C229.783 32.484 229.747 30.24 229.747 27.696C229.747 24.6 229.795 21.516 229.891 18.444C229.987 15.372 230.131 12.564 230.323 10.02L236.515 10.2C236.443 10.752 236.383 11.34 236.335 11.964C237.199 11.388 238.123 10.968 239.107 10.704C240.115 10.44 241.135 10.308 242.167 10.308C243.487 10.308 244.771 10.524 246.019 10.956C247.267 11.364 248.395 12.024 249.403 12.936C250.411 13.824 251.203 14.976 251.779 16.392C252.379 17.808 252.679 19.512 252.679 21.504C252.679 23.472 252.379 25.188 251.779 26.652C251.179 28.116 250.375 29.316 249.367 30.252C248.359 31.212 247.231 31.92 245.983 32.376C244.735 32.856 243.451 33.096 242.131 33.096C239.707 33.096 237.571 32.376 235.723 30.936C235.771 32.472 235.843 33.948 235.939 35.364C236.035 36.804 236.155 38.268 236.299 39.756L230.215 40.224ZM241.195 16.284C238.819 16.284 237.031 17.448 235.831 19.776C235.759 21.216 235.711 22.68 235.687 24.168C236.263 24.936 237.007 25.608 237.919 26.184C238.831 26.736 239.995 27.012 241.411 27.012C244.795 27.012 246.487 25.08 246.487 21.216C246.487 20.184 246.295 19.344 245.911 18.696C245.527 18.048 245.047 17.556 244.471 17.22C243.895 16.86 243.307 16.62 242.707 16.5C242.107 16.356 241.603 16.284 241.195 16.284ZM266.182 32.88C263.878 32.88 261.85 32.424 260.098 31.512C258.37 30.624 257.014 29.376 256.03 27.768C255.07 26.16 254.59 24.3 254.59 22.188C254.59 20.916 254.806 19.584 255.238 18.192C255.67 16.776 256.366 15.456 257.326 14.232C258.286 13.008 259.546 12.012 261.106 11.244C262.69 10.476 264.61 10.092 266.866 10.092C268.498 10.092 269.866 10.272 270.97 10.632C272.098 10.992 273.01 11.46 273.706 12.036C274.426 12.612 274.966 13.224 275.326 13.872C275.71 14.52 275.962 15.144 276.082 15.744C276.226 16.32 276.298 16.8 276.298 17.184C276.298 19.512 275.314 21.312 273.346 22.584C271.402 23.832 268.642 24.456 265.066 24.456C264.25 24.456 263.47 24.42 262.726 24.348C262.006 24.276 261.334 24.192 260.71 24.096C261.166 25.296 261.922 26.184 262.978 26.76C264.034 27.312 265.126 27.588 266.254 27.588C267.886 27.588 269.326 27.3 270.574 26.724C271.822 26.124 272.998 25.212 274.102 23.988L277.306 28.596C276.538 29.22 275.674 29.868 274.714 30.54C273.778 31.212 272.626 31.764 271.258 32.196C269.89 32.652 268.198 32.88 266.182 32.88ZM266.974 15.492C265.558 15.492 264.31 15.852 263.23 16.572C262.15 17.292 261.358 18.24 260.854 19.416C261.454 19.512 262.042 19.596 262.618 19.668C263.218 19.716 263.806 19.74 264.382 19.74C264.91 19.74 265.51 19.692 266.182 19.596C266.878 19.5 267.55 19.356 268.198 19.164C268.87 18.972 269.422 18.732 269.854 18.444C270.286 18.132 270.502 17.772 270.502 17.364C270.502 17.172 270.406 16.932 270.214 16.644C270.022 16.356 269.674 16.092 269.17 15.852C268.666 15.612 267.934 15.492 266.974 15.492Z" fill="white"/>
</svg>
